<?xml version="1.0" encoding="UTF-8"?>
<svg width="512px" height="512px" viewBox="0 0 512 512" version="1.1" xmlns="http://www.w3.org/2000/svg" xmlns:xlink="http://www.w3.org/1999/xlink">
    <!-- Generator: Sketch 61 (89581) - https://sketch.com -->
    <title>Icon</title>
    <desc>Created with Sketch.</desc>
    <defs>
        <path d="M235.783001,265.094552 C236.063942,263.226328 236.380235,261.280503 236.756056,259.17414 C236.776562,259.05562 236.801251,258.933411 236.822222,258.814481 C238.264861,250.775049 240.217919,242.948734 242.62049,235.366476 C242.717719,235.072253 242.810765,234.781718 242.904276,234.490774 C245.248638,227.229929 248.026793,220.210971 251.184226,213.452449 C251.530603,212.707208 251.898399,211.973456 252.255486,211.23396 C253.468923,208.736456 254.739082,206.28091 256.059799,203.858412 C256.515388,203.024431 256.95476,202.165934 257.426068,201.334123 C258.935066,198.660303 260.52854,196.058817 262.168482,193.485548 C263.043292,192.119735 263.948758,190.78849 264.858407,189.453556 C265.719285,188.176833 266.609301,186.921669 267.505483,185.675415 C271.472039,180.185639 275.7162,174.96834 280.238519,170.083794 C280.578207,169.714952 280.921625,169.350417 281.264214,168.985769 C286.321853,163.629021 291.691376,158.653766 297.345434,154.129701 C297.4421,154.052029 297.538766,153.974356 297.635432,153.896683 C303.241185,149.43042 309.121319,145.400673 315.225035,141.822713 C315.76214,141.510978 316.29878,141.199653 316.839149,140.892634 C322.284555,137.786493 327.920634,135.075928 333.698222,132.726662 C335.312689,132.073935 336.932209,131.447977 338.57494,130.855559 C339.826513,130.39972 341.074357,129.939574 342.337512,129.519936 C345.180697,128.585975 348.061474,127.726882 350.980259,126.981112 C367.439003,122.725569 384.799394,121.532443 402.490657,123.952471 L431.665145,127.948156 L428.037828,160.870457 C425.176368,186.851624 417.208582,210.763416 405.425018,231.474203 C405.334322,231.639446 405.235353,231.803547 405.144656,231.968789 C385.665714,265.941646 355.865357,291.217238 321.424735,302.846722 C320.496477,303.156622 319.571121,303.470713 318.641538,303.758151 C316.884034,304.313399 315.121942,304.841468 313.341377,305.323379 C311.376256,305.84571 309.401493,306.314094 307.419239,306.751106 C305.633067,307.145971 303.836232,307.496228 302.027724,307.818803 C300.042299,308.173372 298.045202,308.500259 296.039834,308.756798 C294.839532,308.92013 293.644229,309.072302 292.436527,309.195743 C289.411131,309.51061 286.369927,309.76262 283.310209,309.86892 C282.870798,309.886022 282.427613,309.868473 281.984473,309.881268 C279.101763,309.947054 276.206555,309.915281 273.301558,309.801262 C271.879717,309.74394 270.457513,309.686093 269.025472,309.583753 C268.57958,309.552558 268.114613,309.522997 267.680349,309.489141 C265.271999,309.290942 262.861351,309.040757 260.436369,308.71038 L231.265145,304.719412 L234.889198,271.792395 C235.139494,269.543568 235.459616,267.316702 235.783001,265.094552 Z" id="path-1"></path>
        <filter x="0.0%" y="0.0%" width="100.0%" height="100.0%" filterUnits="objectBoundingBox" id="filter-2">
            <feMorphology radius="1" operator="erode" in="SourceAlpha" result="shadowSpreadOuter1"></feMorphology>
            <feOffset dx="0" dy="2" in="shadowSpreadOuter1" result="shadowOffsetOuter1"></feOffset>
            <feColorMatrix values="0 0 0 0 0   0 0 0 0 0   0 0 0 0 0  0 0 0 0.5 0" type="matrix" in="shadowOffsetOuter1"></feColorMatrix>
        </filter>
        <path d="M199.63332,256.963353 C201.636568,254.90925 208.568795,258.672002 209.96149,257.144935 C210.040297,257.059544 207.802756,255.223303 207.881563,255.137289 C213.191419,249.302022 220.2971,244.909698 224.583792,238.538399 C224.747366,238.287835 224.910939,238.042881 225.074513,237.797304 C229.149288,231.659739 232.734003,225.300283 235.851838,218.775031 C236.196866,218.056998 236.518054,217.327745 236.851161,216.604102 C237.971013,214.153938 239.018679,211.680713 240.00542,209.184425 C240.344488,208.324281 240.714019,207.463514 241.040504,206.591527 C242.094131,203.793566 243.032528,200.966933 243.916621,198.117862 C244.382839,196.602013 244.800714,195.080556 245.218588,193.553488 C245.624543,192.100593 245.993411,190.635855 246.351022,189.171117 C247.913251,182.703208 249.069525,176.161127 249.772164,169.579155 C249.826468,169.083637 249.874811,168.587496 249.923817,168.091978 C250.626456,160.791973 250.81387,153.452077 250.4503,146.135243 C250.444339,146.009961 250.438379,145.88468 250.432419,145.759398 C250.056928,138.516112 249.148994,131.295889 247.731796,124.149837 C247.604646,123.522804 247.477495,122.896395 247.344385,122.269362 C246.012616,115.943564 244.23847,109.686951 242.082873,103.520716 C241.477584,101.799804 240.847792,100.090112 240.175616,98.3804199 C239.667014,97.0752448 239.164373,95.770693 238.619347,94.4767372 C237.384266,91.5703229 236.064418,88.6757512 234.62934,85.8148374 C226.576478,69.6534787 215.496508,54.5062175 201.352345,41.165882 L178.023548,19.1692563 L154.700712,41.165882 C136.29436,58.5239628 123.04621,78.9424111 114.950965,100.694083 C114.884078,100.864865 114.823814,101.04188 114.756928,101.212662 C101.581625,137.017716 102.37499,176.406704 117.088019,211.795398 C117.487351,212.747167 117.881385,213.698935 118.29926,214.63886 C119.080043,216.422724 119.885329,218.194745 120.739621,219.955548 C121.689939,221.893365 122.689262,223.80812 123.718386,225.711033 C124.644862,227.426335 125.613722,229.124808 126.612383,230.817048 C127.708393,232.675083 128.834204,234.526886 130.020942,236.345031 C130.723581,237.43891 131.431517,238.522193 132.170579,239.599243 C134.017572,242.300594 135.924829,244.978883 137.959236,247.58861 C138.24996,247.964455 138.570485,248.323472 138.86717,248.699941 C140.81085,251.138886 142.839297,253.53233 144.939928,255.885883 C145.969052,257.037105 146.998838,258.188327 148.070346,259.322097 C148.403454,259.675504 148.748482,260.04574 149.075629,260.387927 C150.898119,262.279621 152.762992,264.143266 154.700712,265.972631 L161.850735,267.279035 L191.605542,265.080354 C193.196909,263.575725 197.630071,259.017456 199.63332,256.963353 Z" id="path-3"></path>
        <filter x="-6.2%" y="-3.6%" width="112.4%" height="107.3%" filterUnits="objectBoundingBox" id="filter-4">
            <feOffset dx="0" dy="0" in="SourceAlpha" result="shadowOffsetOuter1"></feOffset>
            <feGaussianBlur stdDeviation="3" in="shadowOffsetOuter1" result="shadowBlurOuter1"></feGaussianBlur>
            <feColorMatrix values="0 0 0 0 0   0 0 0 0 0   0 0 0 0 0  0 0 0 0.5 0" type="matrix" in="shadowBlurOuter1"></feColorMatrix>
        </filter>
        <linearGradient x1="37.8823284%" y1="12.7228188%" x2="53.9033965%" y2="87.2211454%" id="linearGradient-5">
            <stop stop-color="#7CA2A5" offset="0%"></stop>
            <stop stop-color="#7CA2A5" offset="100%"></stop>
        </linearGradient>
        <path d="M81.25141,97.3542833 C81.0741866,99.1080709 80.9100269,100.943979 80.7611593,102.944447 C80.7522306,103.056758 80.7460805,103.173952 80.7374606,103.286805 C80.1763674,110.925286 80.1033554,118.576102 80.4728414,126.188183 C80.4906278,126.485129 80.5056357,126.777192 80.5209523,127.069797 C80.9124116,134.376287 81.732324,141.639796 82.9378372,148.822659 C83.0692272,149.613992 83.2216711,150.403604 83.3635881,151.194076 C83.8493074,153.866656 84.3933705,156.524529 84.9884596,159.17312 C85.1941152,160.085293 85.3802781,161.012689 85.5999785,161.929108 C86.3010181,164.872547 87.0911603,167.785419 87.927715,170.691658 C88.3755099,172.235915 88.8575074,173.761761 89.3422835,175.292489 C89.7980686,176.752905 90.2838257,178.205759 90.7769006,179.653189 C92.9651714,186.036529 95.4540563,192.288821 98.2575685,198.357245 C98.4677142,198.814778 98.6820429,199.269982 98.8956323,199.724963 C102.054806,206.41846 105.568641,212.898411 109.429199,219.092782 C109.495129,219.198972 109.561058,219.305162 109.626988,219.411353 C113.458864,225.535953 117.62541,231.383907 122.086243,236.921892 C122.479479,237.406476 122.872406,237.890517 123.269516,238.372229 C127.268526,243.237321 131.520816,247.829014 135.976287,252.158219 C137.222147,253.364662 138.478377,254.549531 139.762157,255.713976 C140.739244,256.605097 141.712147,257.498547 142.707352,258.362349 C144.949797,260.297335 147.241475,262.181165 149.591382,263.980168 C154.659438,267.880305 161.093369,271.721549 166.570187,274.895766 C175.400829,280.013768 183.584775,283.852339 193.337672,286.813418 L219.39719,294.720766 L223.661744,264.33329 C227.028131,240.352951 225.525745,216.194046 220.013531,193.357565 C219.972414,193.176662 219.923906,192.993525 219.88279,192.812622 C210.711635,155.294231 190.68547,121.387011 163.592828,97.6696893 C162.861821,97.0335682 162.134257,96.3948941 161.397063,95.7780176 C160.005947,94.6013381 158.60477,93.4467752 157.177297,92.3255938 C155.599725,91.0965861 154.001722,89.9112692 152.390214,88.7506218 C150.938357,87.7038337 149.467286,86.6921192 147.979932,85.7001908 C146.347176,84.6108413 144.698137,83.541278 143.026166,82.5303737 C142.027615,81.9166952 141.030868,81.3147938 140.016976,80.7333168 C137.478356,79.2717089 134.911987,77.8592167 132.296929,76.5676806 C131.921788,76.3805856 131.535612,76.2225009 131.156288,76.0377353 C128.684798,74.8511524 126.180745,73.745026 123.64953,72.7084096 C122.410356,72.2021362 121.170751,71.6961819 119.912672,71.2255247 C119.521096,71.0783866 119.113436,70.9223425 118.731291,70.7820991 C116.609644,70.0135196 114.47434,69.2897804 112.308666,68.6309868 L86.2530216,60.7207663 L81.984593,91.1111143 C81.6954716,93.1877832 81.4715037,95.2724692 81.25141,97.3542833 Z" id="path-6"></path>
        <filter x="-5.9%" y="-2.5%" width="111.7%" height="106.8%" filterUnits="objectBoundingBox" id="filter-7">
            <feMorphology radius="1" operator="erode" in="SourceAlpha" result="shadowSpreadOuter1"></feMorphology>
            <feOffset dx="0" dy="2" in="shadowSpreadOuter1" result="shadowOffsetOuter1"></feOffset>
            <feGaussianBlur stdDeviation="3.5" in="shadowOffsetOuter1" result="shadowBlurOuter1"></feGaussianBlur>
            <feColorMatrix values="0 0 0 0 0.199766929   0 0 0 0 0.29735854   0 0 0 0 0.307631341  0 0 0 1 0" type="matrix" in="shadowBlurOuter1"></feColorMatrix>
        </filter>
        <path d="M312.581611,257.206135 C312.660417,257.120744 312.739224,257.029743 312.818031,256.943729 C318.127887,251.108462 322.91722,244.970897 327.203912,238.599599 C327.367486,238.349035 327.53106,238.104081 327.694634,237.858504 C331.769408,231.720939 335.354124,225.361483 338.471959,218.836231 C338.816987,218.118198 339.138174,217.388945 339.471282,216.665302 C340.591133,214.215138 341.6388,211.741913 342.62554,209.245625 C342.964608,208.385481 343.334139,207.524714 343.660624,206.652727 C344.714251,203.854766 345.652648,201.028133 346.536741,198.179062 C347.002959,196.663213 347.420834,195.141756 347.838709,193.614688 C348.244663,192.161793 348.613532,190.697055 348.971142,189.232317 C350.533371,182.764408 351.689646,176.222327 352.392284,169.640355 C352.446588,169.144837 352.494932,168.648696 352.543938,168.153178 C353.246576,160.853173 353.433991,153.513277 353.07042,146.196443 C353.06446,146.071161 353.0585,145.94588 353.052539,145.820598 C352.677048,138.577312 351.769115,131.357089 350.351917,124.211037 C350.224766,123.584004 350.097616,122.957595 349.964505,122.330562 C348.632737,116.004764 346.858591,109.748151 344.702993,103.581915 C344.097704,101.861004 343.467912,100.151312 342.795736,98.4416199 C342.287135,97.1364448 341.784493,95.831893 341.239468,94.5379372 C340.004387,91.6315229 338.684538,88.7369512 337.24946,85.8760373 C329.196598,69.7146787 318.116629,54.5674174 303.972465,41.227082 L280.643669,19.2304563 L257.320833,41.227082 C238.91448,58.5851627 225.66633,79.0036111 217.571085,100.755283 C217.504199,100.926065 217.443935,101.10308 217.377048,101.273862 C204.201745,137.078916 204.995111,176.467904 219.70814,211.856598 C220.107472,212.808366 220.501506,213.760135 220.91938,214.70006 C221.700164,216.483924 222.50545,218.255945 223.359742,220.016748 C224.310059,221.954565 225.309382,223.86932 226.338506,225.772233 C227.264982,227.487535 228.233842,229.186008 229.232503,230.878248 C230.328514,232.736283 231.454325,234.588086 232.641062,236.406231 C233.343701,237.50011 234.051638,238.583393 234.7907,239.660443 C236.637693,242.361794 238.544949,245.040083 240.579357,247.64981 C240.870081,248.025655 241.190606,248.384672 241.48729,248.761141 C243.43097,251.200086 245.459417,253.59353 247.560049,255.947083 C248.589173,257.098305 249.618959,258.249527 250.690466,259.383297 C251.023574,259.736704 251.368602,260.106939 251.69575,260.449127 C253.518239,262.340821 255.383113,264.204466 257.320833,266.033831 L274.311525,263.263724 L310.762903,252.536493 C312.766152,250.48239 311.188916,258.733202 312.581611,257.206135 Z" id="path-8"></path>
        <filter x="-6.2%" y="-3.6%" width="112.4%" height="107.3%" filterUnits="objectBoundingBox" id="filter-9">
            <feOffset dx="0" dy="0" in="SourceAlpha" result="shadowOffsetOuter1"></feOffset>
            <feGaussianBlur stdDeviation="3" in="shadowOffsetOuter1" result="shadowBlurOuter1"></feGaussianBlur>
            <feColorMatrix values="0 0 0 0 0   0 0 0 0 0   0 0 0 0 0  0 0 0 0.5 0" type="matrix" in="shadowBlurOuter1"></feColorMatrix>
        </filter>
        <linearGradient x1="37.0199011%" y1="12.7228188%" x2="54.1812053%" y2="87.2211454%" id="linearGradient-10">
            <stop stop-color="#7CA2A5" offset="0%"></stop>
            <stop stop-color="#7CA2A5" offset="100%"></stop>
        </linearGradient>
        <path d="M245.618415,97.1753301 C245.441191,98.9291178 245.277032,100.765026 245.128164,102.765494 C245.119235,102.877804 245.113085,102.994999 245.104465,103.107852 C244.543372,110.746333 244.47036,118.397148 244.839846,126.00923 C244.857632,126.306176 244.87264,126.598239 244.887957,126.890844 C245.279416,134.197334 246.099329,141.460843 247.304842,148.643706 C247.436232,149.435039 247.588676,150.224651 247.730593,151.015123 C248.216312,153.687703 248.760375,156.345576 249.355464,158.994167 C249.56112,159.90634 249.747283,160.833736 249.966983,161.750155 C250.668023,164.693594 251.458165,167.606466 252.29472,170.512704 C252.742515,172.056962 253.224512,173.582807 253.709288,175.113536 C254.165073,176.573952 254.65083,178.026806 255.143905,179.474236 C257.332176,185.857576 259.821061,192.109868 262.624573,198.178292 C262.834719,198.635825 263.049048,199.091029 263.262637,199.54601 C266.421811,206.239507 269.935646,212.719458 273.796203,218.913829 C273.862133,219.020019 273.928063,219.126209 273.993993,219.2324 C277.825868,225.356999 281.992414,231.204954 286.453248,236.742939 C286.846484,237.227523 287.239411,237.711564 287.636521,238.193276 C291.63553,243.058367 295.887821,247.650061 300.343292,251.979266 C301.589152,253.185709 302.845382,254.370578 304.129162,255.535023 C305.106248,256.426143 306.079152,257.319593 307.074357,258.183396 C309.316801,260.118382 311.60848,262.002212 313.958387,263.801215 C327.198009,273.989804 341.902974,281.836906 357.704676,286.634465 L374.338387,283.182094 L388.028749,264.154337 C391.395136,240.173997 389.892749,216.015093 384.380535,193.178612 C384.339419,192.997709 384.290911,192.814572 384.249794,192.633669 C375.07864,155.115278 355.052475,121.208058 327.959833,97.4907361 C327.228826,96.854615 326.501262,96.2159409 325.764067,95.5990644 C324.372952,94.4223849 322.971775,93.267822 321.544301,92.1466406 C319.96673,90.9176329 318.368727,89.732316 316.757219,88.5716686 C315.305362,87.5248805 313.834291,86.513166 312.346937,85.5212376 C310.714181,84.4318881 309.065141,83.3623248 307.393171,82.3514205 C306.394619,81.737742 305.397872,81.1358406 304.383981,80.5543636 C301.845361,79.0927557 299.278991,77.6802635 296.663933,76.3887275 C296.288793,76.2016324 295.902617,76.0435477 295.523293,75.8587821 C293.051802,74.6721992 290.547749,73.5660728 288.016535,72.5294564 C286.777361,72.023183 285.537756,71.5172287 284.279677,71.0465715 C283.888101,70.8994334 283.48044,70.7433893 283.098296,70.603146 C280.976649,69.8345664 278.841345,69.1108272 276.67567,68.4520336 L250.620026,60.5418131 L246.351598,90.9321611 C246.062476,93.00883 245.838508,95.0935161 245.618415,97.1753301 Z" id="path-11"></path>
        <filter x="-5.9%" y="-2.6%" width="111.7%" height="107.2%" filterUnits="objectBoundingBox" id="filter-12">
            <feMorphology radius="1" operator="erode" in="SourceAlpha" result="shadowSpreadOuter1"></feMorphology>
            <feOffset dx="0" dy="2" in="shadowSpreadOuter1" result="shadowOffsetOuter1"></feOffset>
            <feGaussianBlur stdDeviation="3.5" in="shadowOffsetOuter1" result="shadowBlurOuter1"></feGaussianBlur>
            <feColorMatrix values="0 0 0 0 0.208192543   0 0 0 0 0.297725603   0 0 0 0 0.307150136  0 0 0 1 0" type="matrix" in="shadowBlurOuter1"></feColorMatrix>
        </filter>
        <linearGradient x1="50%" y1="0%" x2="50%" y2="100%" id="linearGradient-13">
            <stop stop-color="#D6E8E9" offset="0%"></stop>
            <stop stop-color="#ADCCCF" offset="100%"></stop>
        </linearGradient>
        <path d="M260.761396,242.398487 C262.764644,240.344384 263.340828,239.702746 264.733523,238.175679 C264.812329,238.090287 264.891136,237.999287 264.969943,237.913272 C270.279799,232.078005 275.069132,225.940441 279.355825,219.569142 C279.519398,219.318579 279.682972,219.073625 279.846546,218.828047 C283.92132,212.690483 287.506036,206.331027 290.623871,199.805775 C290.968899,199.087741 291.290086,198.358489 291.623194,197.634846 C292.743045,195.184682 293.790712,192.711456 294.777452,190.215169 C295.11652,189.355025 295.486051,188.494257 295.812537,187.622271 C296.866163,184.824309 297.80456,181.997677 298.688653,179.148605 C299.154872,177.632757 299.572746,176.1113 299.990621,174.584232 C300.396575,173.131337 300.765444,171.666599 301.123055,170.201861 C302.685283,163.733951 303.841558,157.19187 304.544196,150.609898 C304.5985,150.114381 304.646844,149.61824 304.69585,149.122722 C305.398488,141.822717 305.585903,134.482821 305.222332,127.165987 C305.216372,127.040705 305.210412,126.915423 305.204452,126.790141 C304.82896,119.546856 303.921027,112.326632 302.503829,105.180581 C302.376679,104.553548 302.249528,103.927139 302.116417,103.300106 C300.784649,96.9743077 299.010503,90.7176947 296.854905,84.5514592 C296.249616,82.8305478 295.619824,81.1208557 294.947649,79.4111636 C294.439047,78.1059885 293.936405,76.8014367 293.39138,75.5074809 C292.156299,72.6010666 290.836451,69.706495 289.401372,66.8455811 C281.34851,50.6842224 270.268541,35.5369612 256.124378,22.1966257 L232.795581,0.2 L209.472745,22.1966257 C191.066392,39.5547065 177.818243,59.9731548 169.722997,81.7248264 C169.656111,81.8956087 169.595847,82.0726238 169.52896,82.243406 C156.353657,118.04846 157.147023,157.437448 171.860052,192.826142 C172.259384,193.77791 172.653418,194.729678 173.071292,195.669604 C173.852076,197.453468 174.657362,199.225489 175.511654,200.986291 C176.461971,202.924109 177.461294,204.838864 178.490418,206.741777 C179.416895,208.457079 180.385755,210.155551 181.384415,211.847791 C182.480426,213.705827 183.606237,215.55763 184.792975,217.375775 C185.495613,218.469654 186.20355,219.552937 186.942612,220.629987 C188.789605,223.331338 190.696861,226.009627 192.731269,228.619354 C193.021993,228.995199 193.342518,229.354216 193.639202,229.730685 C195.582882,232.169629 197.611329,234.563074 199.711961,236.916627 C200.741085,238.067849 201.770871,239.219071 202.842378,240.35284 C203.175486,240.706247 203.520514,241.076483 203.847662,241.418671 C205.670152,243.310365 207.535025,245.17401 209.472745,247.003374 L232.795581,269 L256.124378,247.003374 C257.715745,245.498746 258.758147,244.45259 260.761396,242.398487 Z" id="path-14"></path>
        <filter x="-6.2%" y="-3.3%" width="112.4%" height="106.7%" filterUnits="objectBoundingBox" id="filter-15">
            <feOffset dx="0" dy="0" in="SourceAlpha" result="shadowOffsetOuter1"></feOffset>
            <feGaussianBlur stdDeviation="3" in="shadowOffsetOuter1" result="shadowBlurOuter1"></feGaussianBlur>
            <feColorMatrix values="0 0 0 0 0.345098039   0 0 0 0 0.494117647   0 0 0 0 0.509803922  0 0 0 1 0" type="matrix" in="shadowBlurOuter1"></feColorMatrix>
        </filter>
    </defs>
    <g id="Icon" stroke="none" stroke-width="1" fill="none" fill-rule="evenodd">
        <rect id="Background" fill="#FFFFFF" x="0" y="0" width="512" height="512"></rect>
        <g id="Glyph" transform="translate(93.000000, 79.000000)">
            <polygon id="Head-Base" fill="#FFFFFF" style="mix-blend-mode: overlay;" points="0 0 163 122 326 0 326 244 163 366 0 244"></polygon>
            <polygon id="Jowl" fill-opacity="0.700000048" fill="#FFFFFF" style="mix-blend-mode: overlay;" points="0 244 163 122 326 244 163 366"></polygon>
            <polygon id="Ears/Nose" fill="#FFFFFF" style="mix-blend-mode: soft-light;" points="0 0 163 366 326 0 163 122"></polygon>
            <path d="M0,0 L163,366 L0,59.5 L0,0 Z M326,0 L326,59.5 L163,366 L326,0 Z" id="Shadows" fill-opacity="0.25" fill="#000000" style="mix-blend-mode: overlay;"></path>
        </g>
        <g id="Smooth-Corners" fill="#000000">
            <path d="M-3.93619317e-15,365.858544 C2.28704159e-15,416.675112 5.29105984,435.102427 15.2265641,453.680205 C25.1620684,472.257983 39.7420171,486.837932 58.3197949,496.773436 C76.8975727,506.70894 95.3248882,512 146.141456,512 L146.141456,512 L0,512 Z M512,365.858544 L512,512 L365.858544,512 C416.675112,512 435.102427,506.70894 453.680205,496.773436 C472.257983,486.837932 486.837932,472.257983 496.773436,453.680205 C506.70894,435.102427 512,416.675112 512,365.858544 L512,365.858544 Z M512,146.141456 C512,95.3248882 506.70894,76.8975727 496.773436,58.3197949 C486.837932,39.7420171 472.257983,25.1620684 453.680205,15.2265641 C435.102427,5.29105984 416.675112,-3.43056238e-15 365.858544,5.90428975e-15 L365.858544,5.90428975e-15 L512,0 Z M0,0 L146.141456,-5.90428975e-15 C95.3248882,3.43056238e-15 76.8975727,5.29105984 58.3197949,15.2265641 C39.7420171,25.1620684 25.1620684,39.7420171 15.2265641,58.3197949 C5.29105984,76.8975727 -2.28704159e-15,95.3248882 3.93619317e-15,146.141456 L3.93619317e-15,146.141456 L0,0 Z"></path>
        </g>
        <g id="Group-2" transform="translate(-55.000000, 3.000000)">
            <path d="M19.44,26.1575631 C134.258211,24.8584596 236.694066,45.5483036 326.747565,88.2270949 C416.801063,130.905886 515.580222,196.916188 623.085039,286.258001 L623.085039,492.34068 C594.505081,483.956264 557.599928,460.243359 512.36958,421.201964 C423.087868,344.136836 328.471498,296.865637 281.846424,278.321521 C162.152397,230.715806 74.6835894,213.421966 19.44,226.44 L19.44,26.1575631 Z" id="Path-3-Copy-2" fill="#C2DADD" opacity="0.361886161" transform="translate(321.262520, 259.220340) scale(-1, -1) rotate(-5.000000) translate(-321.262520, -259.220340) "></path>
            <g id="Group" transform="translate(0.000000, 118.980000)" stroke="#ADCCCF" stroke-width="1.296">
                <path d="M0,305.1 C141.787275,217.545362 250.9127,159.127916 327.376273,129.847663 C403.839847,100.567409 508.914423,80.6848551 642.6,70.2" id="Path-4" transform="translate(321.300000, 187.650000) scale(1, -1) translate(-321.300000, -187.650000) "></path>
                <path d="M0,234.9 C141.787275,147.345362 250.9127,88.9279163 327.376273,59.6476628 C403.839847,30.3674093 508.914423,10.4848551 642.6,0" id="Path-4-Copy" transform="translate(321.300000, 117.450000) scale(1, -1) translate(-321.300000, -117.450000) "></path>
                <path d="M0,270.9 C141.787275,183.345362 250.9127,124.927916 327.376273,95.6476628 C403.839847,66.3674093 508.914423,46.4848551 642.6,36" id="Path-4-Copy-2" transform="translate(321.300000, 153.450000) scale(1, -1) translate(-321.300000, -153.450000) "></path>
            </g>
        </g>
        <g id="Group-17" transform="translate(22.000000, 117.000000)" fill-rule="nonzero">
            <g id="Path-Copy-5" transform="translate(331.465145, 216.315281) rotate(36.000000) translate(-331.465145, -216.315281) ">
                <use fill="black" fill-opacity="1" filter="url(#filter-2)" xlink:href="#path-1"></use>
                <use fill="#587E82" xlink:href="#path-1"></use>
            </g>
            <path d="M230.882144,265.61272 C230.601203,263.780423 230.28491,261.872018 229.909089,259.806162 C229.888583,259.689921 229.863894,259.570062 229.842923,259.45342 C228.400284,251.568592 226.447226,243.892783 224.044655,236.456338 C223.947426,236.167772 223.85438,235.882825 223.760869,235.597476 C221.416507,228.476263 218.638352,221.592285 215.480919,214.963734 C215.134542,214.232825 214.766746,213.513183 214.409659,212.787908 C213.196222,210.338433 211.926063,207.930109 210.605346,205.554197 C210.149757,204.736255 209.710385,203.894267 209.239077,203.078452 C207.730079,200.456053 206.136604,197.904595 204.496663,195.380812 C203.621853,194.041264 202.716387,192.73562 201.806738,191.426358 C200.94586,190.174187 200.055844,188.943162 199.159662,187.720874 C195.193106,182.336671 190.948945,177.219704 186.426626,172.429091 C186.086938,172.067343 185.74352,171.709819 185.400931,171.352182 C180.343292,166.098449 174.973769,161.218872 169.319711,156.781808 C169.223045,156.705629 169.126379,156.62945 169.029713,156.553271 C163.42396,152.172898 157.543826,148.220646 151.44011,144.711493 C150.903005,144.405753 150.366365,144.100414 149.825996,143.7993 C144.38059,140.752893 138.744511,138.094454 132.966923,135.790366 C131.352456,135.150191 129.732936,134.536271 128.090205,133.955246 C126.838632,133.508173 125.590788,133.056876 124.327633,132.645308 C121.484448,131.729308 118.603671,130.886736 115.684886,130.155307 C99.2261419,125.981601 81.8657512,124.81142 64.1744875,127.18491 L35,131.103754 L38.6273165,163.392934 C41.4887764,188.874463 49.4565628,212.326413 61.2401266,232.638916 C61.3308228,232.800981 61.4297924,232.961926 61.5204886,233.123991 C80.999431,266.443523 110.799788,291.233046 145.24041,302.638887 C146.168668,302.942826 147.094024,303.250878 148.023607,303.532788 C149.78111,304.077358 151.543203,304.595272 153.323768,305.067915 C155.288889,305.580201 157.263652,306.039578 159.245906,306.468187 C161.032078,306.855457 162.828913,307.198979 164.637421,307.51535 C166.622846,307.863101 168.619943,308.183702 170.625311,308.435307 C171.825613,308.595498 173.020916,308.744744 174.228617,308.865811 C177.254013,309.174622 180.295218,309.421786 183.354936,309.526042 C183.794347,309.542815 184.237531,309.525604 184.680672,309.538153 C187.563382,309.602674 190.45859,309.571512 193.363587,309.459686 C194.785428,309.403465 196.207632,309.346731 197.639673,309.246359 C198.085565,309.215764 198.550532,309.186772 198.984796,309.153566 C201.393146,308.959179 203.803794,308.713805 206.228776,308.389782 L235.4,304.475564 L231.775947,272.181758 C231.525651,269.976178 231.205529,267.792136 230.882144,265.61272 Z" id="Path-Copy-6" fill="#587E82" transform="translate(135.200000, 217.771512) rotate(-36.000000) translate(-135.200000, -217.771512) "></path>
            <g id="Path-Copy-11" transform="translate(178.031533, 143.224146) scale(-1, 1) rotate(25.000000) translate(-178.031533, -143.224146) ">
                <use fill="black" fill-opacity="1" filter="url(#filter-4)" xlink:href="#path-3"></use>
                <use fill="#587E82" xlink:href="#path-3"></use>
            </g>
            <g id="Path-Copy-7" transform="translate(152.844665, 177.720766) rotate(-24.000000) translate(-152.844665, -177.720766) ">
                <use fill="black" fill-opacity="1" filter="url(#filter-7)" xlink:href="#path-6"></use>
                <use fill="url(#linearGradient-5)" xlink:href="#path-6"></use>
            </g>
            <g id="Path-Copy-10" transform="translate(280.651654, 142.632143) rotate(25.000000) translate(-280.651654, -142.632143) ">
                <use fill="black" fill-opacity="1" filter="url(#filter-9)" xlink:href="#path-8"></use>
                <use fill="#587E82" xlink:href="#path-8"></use>
            </g>
            <g id="Path-Copy-8" transform="translate(317.211670, 173.588139) scale(-1, 1) rotate(-24.000000) translate(-317.211670, -173.588139) ">
                <use fill="black" fill-opacity="1" filter="url(#filter-12)" xlink:href="#path-11"></use>
                <use fill="url(#linearGradient-10)" xlink:href="#path-11"></use>
            </g>
            <g id="Path-Copy-5">
                <use fill="black" fill-opacity="1" filter="url(#filter-15)" xlink:href="#path-14"></use>
                <use fill="url(#linearGradient-13)" xlink:href="#path-14"></use>
            </g>
        </g>
    </g>
</svg>